<svg xmlns="http://www.w3.org/2000/svg" xmlns:xlink="http://www.w3.org/1999/xlink" viewBox="0 0 400.25 241.04"><defs><style>.cls-1{fill:url(#radial-gradient);}.cls-2{fill:url(#radial-gradient-2);}.cls-3{fill:url(#radial-gradient-3);}.cls-4{isolation:isolate;}.cls-5{mix-blend-mode:lighten;}.cls-6,.cls-7,.cls-8{fill:none;stroke-linecap:round;stroke-linejoin:round;stroke-width:0.25px;stroke-dasharray:0.51 0.51 0.51 0.51 0.51 0.51;}.cls-6{stroke:#6dba65;}.cls-7{stroke:#df796e;}.cls-8{stroke:#b78fc1;}</style><radialGradient id="radial-gradient" cx="2" cy="2" r="2" gradientUnits="userSpaceOnUse"><stop offset="0.02" stop-color="#d5e8d5"/><stop offset="0.3" stop-color="#4ca547"/><stop offset="1" stop-color="#f4f9f4"/></radialGradient><radialGradient id="radial-gradient-2" cx="2" cy="2" r="2" gradientUnits="userSpaceOnUse"><stop offset="0.02" stop-color="#b993c4"/><stop offset="0.3" stop-color="#ac7fb8"/><stop offset="1" stop-color="#fff" stop-opacity="0"/></radialGradient><radialGradient id="radial-gradient-3" cx="2" cy="2" r="2" gradientUnits="userSpaceOnUse"><stop offset="0.02" stop-color="#ffe4c1"/><stop offset="0.3" stop-color="#d8574f"/><stop offset="1" stop-color="#f79421" stop-opacity="0"/></radialGradient><symbol id="RED" data-name="RED" viewBox="0 0 4 4"><circle class="cls-3" cx="2" cy="2" r="2"/></symbol></defs><g class="cls-4"><g id="Layer_1" data-name="Layer 1"><g class="cls-5"><path class="cls-6" d="M0,162.55s25.1,66.74,121.47,50.08S220.84,46,308.84,111,360,76.44,400,102.44" transform="translate(0.13 -74.56)"/><path class="cls-6" d="M1.1,163.78S29.84,228.59,124,210.37,222.94,46.54,308.2,110s52.19-29,91.8-4.7" transform="translate(0.13 -74.56)"/><path class="cls-6" d="M2.2,165s32.38,62.89,124.34,43.11,98.5-161,181-99,53.22-23.58,92.45-.9" transform="translate(0.13 -74.56)"/><path class="cls-6" d="M3.31,166.22s36,61,125.76,39.63,98.06-158.15,177.84-97.7,54.25-18.1,93.09,2.92" transform="translate(0.13 -74.56)"/><path class="cls-6" d="M4.41,167.45s39.65,59.05,127.2,36.14,97.62-155.31,174.65-96.37S361.54,94.58,400,114" transform="translate(0.13 -74.56)"/><path class="cls-6" d="M5.51,168.67S48.8,225.8,134.14,201.33s97.19-152.47,171.48-95.05,56.31-7.16,94.38,10.55" transform="translate(0.13 -74.56)"/><path class="cls-6" d="M6.61,169.9s46.93,55.2,130.06,29.18S233.42,49.44,305,105.35s57.34-1.7,95,14.35" transform="translate(0.13 -74.56)"/><path class="cls-6" d="M7.71,171.12s50.56,53.28,131.5,25.7S235.52,50,304.33,104.41s58.37,3.78,95.67,18.17" transform="translate(0.13 -74.56)"/><path class="cls-6" d="M8.82,172.34S63,223.7,141.74,194.56s95.88-143.95,161.94-91.08,59.4,9.25,96.32,22" transform="translate(0.13 -74.56)"/><path class="cls-6" d="M9.92,173.57S67.75,223,144.27,192.3,239.71,51.19,303,102.54s60.43,14.72,97,25.8" transform="translate(0.13 -74.56)"/><path class="cls-6" d="M11,174.79S72.49,222.3,146.81,190s95-138.27,155.58-88.43,61.46,20.19,97.61,29.6" transform="translate(0.13 -74.56)"/><path class="cls-6" d="M12.12,176s65.11,45.58,137.22,11.76,94.57-135.43,152.41-87.11,62.49,25.66,98.25,33.42" transform="translate(0.13 -74.56)"/><path class="cls-6" d="M13.22,177.24S82,220.9,151.87,185.52,246,52.93,301.1,99.73,364.63,130.87,400,137" transform="translate(0.13 -74.56)"/><path class="cls-6" d="M14.32,178.47s72.39,41.73,140.08,4.79S248.1,53.51,300.46,98.8,365,135.4,400,139.85" transform="translate(0.13 -74.56)"/><path class="cls-6" d="M15.43,179.69s76,39.81,141.51,1.32S250.2,54.09,299.81,97.86,365.4,139.94,400,142.72" transform="translate(0.13 -74.56)"/><path class="cls-6" d="M16.53,180.91s79.65,37.89,142.94-2.16S252.3,54.67,299.17,96.93,365.78,144.48,400,145.6" transform="translate(0.13 -74.56)"/><path class="cls-6" d="M17.63,182.14s83.29,36,144.37-5.65S254.39,55.25,298.52,96,366.17,149,400,148.48" transform="translate(0.13 -74.56)"/><path class="cls-6" d="M18.73,183.36s86.93,34,145.81-9.13,92-118.4,133.34-79.17,68.67,58.49,102.12,56.3" transform="translate(0.13 -74.56)"/><path class="cls-6" d="M19.83,184.59S110.4,216.7,167.07,172,258.59,56.41,297.23,94.12s69.71,64,102.77,60.11" transform="translate(0.13 -74.56)"/><path class="cls-6" d="M20.94,185.81s94.2,30.19,148.66-16.1S260.68,57,296.59,93.19,367.32,162.62,400,157.11" transform="translate(0.13 -74.56)"/><path class="cls-6" d="M22,187s97.84,28.27,150.1-19.58,90.64-109.88,123.8-75.2S367.71,167.16,400,160" transform="translate(0.13 -74.56)"/><path class="cls-6" d="M23.14,188.26S124.61,214.6,174.67,165.2s90.21-107,120.63-73.88,72.79,80.37,104.7,71.54" transform="translate(0.13 -74.56)"/><path class="cls-6" d="M24.24,189.48s105.11,24.42,153-26.54S267,58.73,294.65,90.38,368.48,176.23,400,165.74" transform="translate(0.13 -74.56)"/><path class="cls-6" d="M25.34,190.71s108.75,22.49,154.4-30S269.07,59.32,294,89.44s74.86,91.32,106,79.18" transform="translate(0.13 -74.56)"/><path class="cls-6" d="M26.45,191.93s112.38,20.58,155.82-33.51,88.9-98.52,111.09-69.91,75.89,96.79,106.64,83" transform="translate(0.13 -74.56)"/><path class="cls-6" d="M27.55,193.15s116,18.66,157.25-37,88.46-95.68,107.91-68.59S369.64,189.83,400,174.37" transform="translate(0.13 -74.56)"/><path class="cls-6" d="M28.65,194.38s119.66,16.73,158.68-40.48,88-92.84,104.74-67.26S370,194.37,400,177.25" transform="translate(0.13 -74.56)"/><path class="cls-6" d="M29.75,195.6s123.3,14.81,160.12-44,87.59-90,101.55-65.94,79,113.21,108.58,94.43" transform="translate(0.13 -74.56)"/><path class="cls-6" d="M30.85,196.83s126.93,12.88,161.55-47.45,87.15-87.16,98.38-64.61S370.79,203.44,400,183" transform="translate(0.13 -74.56)"/><path class="cls-6" d="M32,198.05s130.57,11,163-50.92,86.72-84.33,95.2-63.3S371.18,208,400,185.88" transform="translate(0.13 -74.56)"/><path class="cls-6" d="M33.06,199.28s134.2,9,164.41-54.41,86.28-81.49,92-62S371.56,212.51,400,188.76" transform="translate(0.13 -74.56)"/><path class="cls-6" d="M34.16,200.5S172,207.61,200,142.61,285.84,64,288.84,82,372,217.05,400,191.64" transform="translate(0.13 -74.56)"/></g><g class="cls-5"><path class="cls-7" d="M0,162.55S33.89,274.47,130.25,257.8s-36.6-191.42,51.4-126.42,178.35,3,218.35,29" transform="translate(0.13 -74.56)"/><path class="cls-7" d="M1.86,165.16S36.54,274.63,131.7,257.67c95.35-17.05-34.6-188.13,51.72-125.28,85.91,62.54,177,5.6,216.58,29.94" transform="translate(0.13 -74.56)"/><path class="cls-7" d="M3.72,167.76s35.47,107,129.43,89.77c94.33-17.43-32.61-184.83,52-124.13C269,193.48,360.77,141.61,400,164.29" transform="translate(0.13 -74.56)"/><path class="cls-7" d="M5.58,170.36s36.26,104.61,129,87C227.91,239.59,104,75.86,187,134.4c81.71,57.64,174.2,10.83,213,31.85" transform="translate(0.13 -74.56)"/><path class="cls-7" d="M7.43,173s37.06,102.17,128.62,84.3c92.29-18.2-28.64-178.26,52.69-121.86,79.59,55.18,172.8,13.44,211.26,32.81" transform="translate(0.13 -74.56)"/><path class="cls-7" d="M9.29,175.57S47.14,275.3,137.5,257.13c91.27-18.57-26.67-175,53-120.72C268,189.15,361.93,152.47,400,170.18" transform="translate(0.13 -74.56)"/><path class="cls-7" d="M11.15,178.18S49.79,275.47,138.94,257c90.26-19-24.69-171.68,53.34-119.58,75.35,50.3,170,18.67,207.72,34.72" transform="translate(0.13 -74.56)"/><path class="cls-7" d="M13,180.78s39.43,94.86,127.38,76.09c89.24-19.34-22.74-168.4,53.66-118.45,73.21,47.87,168.65,21.29,206,35.68" transform="translate(0.13 -74.56)"/><path class="cls-7" d="M14.87,183.38s40.23,92.43,127,73.35c88.22-19.72-20.79-165.1,54-117.3,71.06,45.43,167.25,23.9,204.17,36.63" transform="translate(0.13 -74.56)"/><path class="cls-7" d="M16.73,186s41,90,126.56,70.61c87.2-20.1-18.85-161.82,54.31-116.17C266.51,183.44,363.47,167,400,178" transform="translate(0.13 -74.56)"/><path class="cls-7" d="M18.59,188.59s41.85,87.73,126.15,67.88c86.22-20.31-16.92-158.54,54.63-115C266.11,182,363.85,170.57,400,180" transform="translate(0.13 -74.56)"/><path class="cls-7" d="M20.45,191.19s42.65,85.3,125.74,65.14c85.2-20.67-15-155.24,54.95-113.89C265.71,180.62,364.24,174.19,400,182" transform="translate(0.13 -74.56)"/><path class="cls-7" d="M22.3,193.8s43.45,82.87,125.33,62.4c84.2-21-13.09-152,55.28-112.75,62.38,35.77,161.72,34.36,197.09,40.46" transform="translate(0.13 -74.56)"/><path class="cls-7" d="M24.16,196.4s44.24,80.44,124.92,59.67c83.18-21.43-11.2-148.67,55.61-111.62,60.17,33.38,160.32,37,195.31,41.42" transform="translate(0.13 -74.56)"/><path class="cls-7" d="M26,199s45,78,124.51,56.92c82.16-21.8-9.32-145.37,55.93-110.47,58,31,158.94,39.59,193.54,42.37" transform="translate(0.13 -74.56)"/><path class="cls-7" d="M27.88,201.61S73.71,277.19,152,255.8c81.14-22.18-7.47-142.07,56.25-109.33,55.71,28.62,157.55,42.2,191.77,43.32" transform="translate(0.13 -74.56)"/><path class="cls-7" d="M29.74,204.21s46.63,73.15,123.69,51.46c80.12-22.56-5.63-138.77,56.57-108.2,53.46,26.27,156.17,44.82,190,44.28" transform="translate(0.13 -74.56)"/><path class="cls-7" d="M31.6,206.82S79,277.52,154.87,255.53c79.12-22.93-3.8-135.45,56.9-107C263,172.42,366.55,195.91,400,193.71" transform="translate(0.13 -74.56)"/><path class="cls-7" d="M33.46,209.42s48.21,68.27,122.86,46c78.1-23.32-2-132.12,57.23-105.92,48.88,21.63,153.39,50.05,186.45,46.2" transform="translate(0.13 -74.56)"/><path class="cls-7" d="M35.31,212s49,65.82,122.46,43.24c77.08-23.71-.23-128.78,57.55-104.78,46.57,19.34,152,52.66,184.68,47.15" transform="translate(0.13 -74.56)"/><path class="cls-7" d="M37.17,214.63S87,278,159.22,255.13c76.06-24.09,1.52-125.41,57.87-103.64C261.32,168.58,367.71,206.77,400,199.6" transform="translate(0.13 -74.56)"/><path class="cls-7" d="M39,217.23s50.6,61,121.64,37.77c75-24.48,3.24-122,58.19-102.5,41.86,14.86,149.23,57.89,181.14,49.06" transform="translate(0.13 -74.56)"/><path class="cls-7" d="M40.89,219.84s51.39,58.49,121.23,35c74-24.88,4.93-118.59,58.52-101.37C260.1,166.19,368.48,214,400,203.52" transform="translate(0.13 -74.56)"/><path class="cls-7" d="M42.75,222.44s52.18,56.05,120.81,32.29c73-25.26,6.6-115.1,58.85-100.22,37,10.55,146.46,63.12,177.59,51" transform="translate(0.13 -74.56)"/><path class="cls-7" d="M44.61,225.05s53,53.59,120.4,29.55c72-25.66,8.22-111.55,59.17-99.09C258.79,164,369.25,221.25,400,207.44" transform="translate(0.13 -74.56)"/><path class="cls-7" d="M46.47,227.65s53.75,51.14,120,26.81c70.95-26.06,9.83-107.91,59.49-97.94C258.1,163,369.64,224.87,400,209.41" transform="translate(0.13 -74.56)"/><path class="cls-7" d="M48.32,230.25s54.5,48.57,119.59,24.08c69.87-26.59,11.41-104.16,59.81-96.81C257.41,162,370,228.49,400,211.37" transform="translate(0.13 -74.56)"/><path class="cls-7" d="M50.18,232.86S105.47,279,169.36,254.2c68.85-27,13-100.26,60.14-95.67,27.21,2.65,140.91,73.58,170.5,54.8" transform="translate(0.13 -74.56)"/><path class="cls-7" d="M52,235.46s56.08,43.69,118.77,18.6c67.83-27.35,15.37-103.12,60.46-94.52,24.33,4.63,139.52,76.19,168.73,55.75" transform="translate(0.13 -74.56)"/><path class="cls-7" d="M53.9,238.07s56.87,41.25,118.35,15.86c66.82-27.74,16.38-97.15,60.79-93.39,22.28,1.89,138.14,78.81,167,56.71" transform="translate(0.13 -74.56)"/><path class="cls-7" d="M55.76,240.67s57.67,38.82,117.94,13.13c65.8-28.12,18.05-87.11,61.11-92.25,20-2.39,136.75,81.41,165.19,57.66" transform="translate(0.13 -74.56)"/><path class="cls-7" d="M57.62,243.27s58.46,36.39,117.53,10.39c64.78-28.5,20.08-82,61.43-91.11,17.83-3.9,135.37,84,163.42,58.62" transform="translate(0.13 -74.56)"/></g><g class="cls-5"><path class="cls-8" d="M0,162.55S29.83,344.1,92.45,305.11c97.12-60.48,115.78-47.06,136.36-47.06C310,258.05,360,181.22,400,207.22" transform="translate(0.13 -74.56)"/><path class="cls-8" d="M1.37,166.6s32,175.19,94.47,136.11c96.11-60.07,114.6-46.13,135-45.85,79,1.07,129.6-72.88,169.21-48.54" transform="translate(0.13 -74.56)"/><path class="cls-8" d="M2.74,170.65S37,339.48,99.23,300.31c95.09-59.67,113.42-45.19,133.55-44.64,76.79,2.12,128-68.94,167.22-46.25" transform="translate(0.13 -74.56)"/><path class="cls-8" d="M4.1,174.7s36.44,162.46,98.52,123.21c94.07-59.27,112.23-44.26,132.14-43.43,74.55,3.14,126.4-65,165.24-44" transform="translate(0.13 -74.56)"/><path class="cls-8" d="M5.47,178.75S44.11,334.85,106,295.5c93.05-58.86,111-43.32,130.73-42.2,72.3,4.11,124.79-61.05,163.25-41.68" transform="translate(0.13 -74.56)"/><path class="cls-8" d="M6.84,182.8S47.68,332.54,109.41,293.1c92-58.45,109.82-42.4,129.32-41,70,5.05,123.2-57.1,161.27-39.39" transform="translate(0.13 -74.56)"/><path class="cls-8" d="M8.21,186.85s43,143.38,104.59,103.85c91-58,108.61-41.48,127.92-39.78,67.76,6,121.59-53.15,159.28-37.1" transform="translate(0.13 -74.56)"/><path class="cls-8" d="M9.58,190.9s45.24,137,106.61,97.4c90-57.65,107.39-40.56,126.51-38.57,65.48,6.82,120-49.2,157.3-34.81" transform="translate(0.13 -74.56)"/><path class="cls-8" d="M10.94,195S58.39,325.61,119.58,285.9c89-57.24,106.17-39.65,125.11-37.35C307.88,256.19,363.08,203.28,400,216" transform="translate(0.13 -74.56)"/><path class="cls-8" d="M12.31,199S61.87,323.17,123,283.5c87.83-57,104.93-38.74,123.69-36.14C307.56,255.78,363.47,206,400,217.12" transform="translate(0.13 -74.56)"/><path class="cls-8" d="M13.68,203.05s51.75,117.8,112.69,78.05c86.81-56.64,103.7-37.83,122.29-34.93,58.58,9.15,115.19-37.37,151.34-27.95" transform="translate(0.13 -74.56)"/><path class="cls-8" d="M15.05,207.1s54,111.43,114.71,71.6c85.78-56.24,102.46-36.94,120.88-33.72,56.27,9.84,113.6-33.42,149.36-25.66" transform="translate(0.13 -74.56)"/><path class="cls-8" d="M16.41,211.15S72.56,316.22,133.15,276.3c84.76-55.85,101.21-36.05,119.48-32.51,53.95,10.47,112-29.47,147.37-23.37" transform="translate(0.13 -74.56)"/><path class="cls-8" d="M17.78,215.2s58.35,98.7,118.76,58.7c83.74-55.45,100-35.17,118.07-31.29,51.63,11,110.4-25.54,145.39-21.09" transform="translate(0.13 -74.56)"/><path class="cls-8" d="M19.15,219.25s60.54,92.34,120.79,52.24c82.71-55,98.7-34.29,116.66-30.07C305.9,253,365.4,219.83,400,222.61" transform="translate(0.13 -74.56)"/><path class="cls-8" d="M20.52,223.3s62.74,86,122.81,45.79c81.69-54.64,97.44-33.43,115.25-28.86,47,12.05,107.2-17.64,141.42-16.52" transform="translate(0.13 -74.56)"/><path class="cls-8" d="M21.89,227.35S86.83,307,146.72,266.69c80.67-54.24,96.18-32.58,113.85-27.65,44.67,12.47,105.6-13.69,139.43-14.23" transform="translate(0.13 -74.56)"/><path class="cls-8" d="M23.25,231.4s67.15,73.25,126.86,32.89c79.66-53.83,94.91-31.75,112.44-26.43,42.36,12.83,104-9.75,137.45-12" transform="translate(0.13 -74.56)"/><path class="cls-8" d="M24.62,235.45S94,302.34,153.5,261.89c78.64-53.43,93.65-30.93,111-25.22,40,13.14,102.4-5.81,135.46-9.66" transform="translate(0.13 -74.56)"/><path class="cls-8" d="M26,239.5s71.55,60.53,130.9,20c77.63-53,92.39-30.13,109.63-24,37.76,13.39,100.8-1.86,133.48-7.37" transform="translate(0.13 -74.56)"/><path class="cls-8" d="M27.36,243.55s73.75,54.18,132.93,13.54c76.6-52.61,91.13-29.34,108.22-22.8,35.48,13.59,99.2,2.09,131.49-5.08" transform="translate(0.13 -74.56)"/><path class="cls-8" d="M28.73,247.6s76,47.82,135,7.09c75.59-52.2,89.88-28.59,106.81-21.59,33.22,13.74,97.6,6,129.51-2.79" transform="translate(0.13 -74.56)"/><path class="cls-8" d="M30.09,251.65s78.16,41.47,137,.64c74.58-51.78,88.64-27.85,105.41-20.37,31,13.82,96,10,127.52-.51" transform="translate(0.13 -74.56)"/><path class="cls-8" d="M31.46,255.7s80.37,35.12,139-5.81c73.58-51.37,87.42-27.15,104-19.16,28.76,13.86,94.41,13.93,125.54,1.78" transform="translate(0.13 -74.56)"/><path class="cls-8" d="M32.83,259.75s82.58,28.77,141-12.27c72.57-50.94,86.21-26.48,102.6-17.94,26.57,13.85,92.8,17.87,123.55,4.07" transform="translate(0.13 -74.56)"/><path class="cls-8" d="M34.2,263.8s84.86,22.53,143.05-18.72c71.65-50.38,85-25.85,101.18-16.73,24.43,13.8,91.21,21.82,121.57,6.36" transform="translate(0.13 -74.56)"/><path class="cls-8" d="M35.56,267.85S122.63,284,180.64,242.68c70.64-50,83.89-25.27,99.78-15.51,22.32,13.7,89.6,25.76,119.58,8.64" transform="translate(0.13 -74.56)"/><path class="cls-8" d="M36.93,271.9s89.27,9.81,147.1-31.62c69.62-49.57,82.8-24.74,98.37-14.3,20.27,13.58,88,29.71,117.6,10.93" transform="translate(0.13 -74.56)"/><path class="cls-8" d="M38.3,276s91.47,3.45,149.12-38.07c68.6-49.17,81.78-24.27,97-13.09C302.65,238.23,370.79,258.45,400,238" transform="translate(0.13 -74.56)"/><path class="cls-8" d="M39.67,280s93.67-2.91,151.14-44.52c67.58-48.77,80.83-23.86,95.56-11.88,16.34,13.3,84.81,37.6,113.63,15.51" transform="translate(0.13 -74.56)"/><path class="cls-8" d="M41,284.05s95.87-9.27,153.17-51c66.56-48.36,80-23.52,94.15-10.67,14.49,13.17,83.2,41.55,111.64,17.8" transform="translate(0.13 -74.56)"/><path class="cls-8" d="M42.4,288.1s98.08-15.63,155.2-57.42c65.54-48,79.27-23.25,92.74-9.45C303.09,234.29,372,266.72,400,241.31" transform="translate(0.13 -74.56)"/></g><use width="4" height="4" transform="matrix(0.95, 0, 0, 0.87, 5.65, 101.51)" xlink:href="#RED"/><use width="4" height="4" transform="matrix(0.95, 0, 0, 0.87, 13.1, 102.37)" xlink:href="#RED"/><use width="4" height="4" transform="matrix(0.95, 0, 0, 0.87, 9.72, 112.25)" xlink:href="#RED"/><use width="4" height="4" transform="matrix(0.95, 0, 0, 0.87, 11.22, 121.37)" xlink:href="#RED"/><use width="4" height="4" transform="matrix(0.95, 0, 0, 0.87, 20.15, 117.36)" xlink:href="#RED"/><use width="4" height="4" transform="matrix(0.95, 0, 0, 0.87, 16.4, 126.74)" xlink:href="#RED"/><use width="4" height="4" transform="matrix(0.95, 0, 0, 0.87, 26.08, 122.24)" xlink:href="#RED"/><use width="4" height="4" transform="matrix(0.95, 0, 0, 0.87, 22.67, 132.73)" xlink:href="#RED"/><use width="4" height="4" transform="matrix(0.95, 0, 0, 0.87, 32.7, 132.32)" xlink:href="#RED"/><use width="4" height="4" transform="matrix(0.95, 0, 0, 0.87, 28.26, 141.61)" xlink:href="#RED"/><use width="4" height="4" transform="matrix(0.95, 0, 0, 0.87, 38.54, 136.86)" xlink:href="#RED"/><use width="4" height="4" transform="matrix(0.95, 0, 0, 0.87, 38.55, 145.2)" xlink:href="#RED"/><use width="4" height="4" transform="matrix(0.95, 0, 0, 0.87, 41.56, 153.4)" xlink:href="#RED"/><use width="4" height="4" transform="matrix(0.95, 0, 0, 0.87, 52.32, 148.61)" xlink:href="#RED"/><use width="4" height="4" transform="matrix(0.95, 0, 0, 0.87, 50.68, 156.25)" xlink:href="#RED"/><use width="4" height="4" transform="matrix(0.95, 0, 0, 0.87, 52.02, 163.33)" xlink:href="#RED"/><use width="4" height="4" transform="matrix(0.95, 0, 0, 0.87, 62.25, 156.48)" xlink:href="#RED"/><use width="4" height="4" transform="matrix(0.95, 0, 0, 0.87, 62.98, 164.53)" xlink:href="#RED"/><use width="4" height="4" transform="matrix(0.95, 0, 0, 0.87, 70.22, 169.65)" xlink:href="#RED"/><use width="4" height="4" transform="matrix(0.95, 0, 0, 0.87, 78.39, 174.14)" xlink:href="#RED"/><use width="4" height="4" transform="matrix(0.95, 0, 0, 0.87, 83.74, 167.78)" xlink:href="#RED"/><use width="4" height="4" transform="matrix(0.95, 0, 0, 0.87, 91.03, 175.95)" xlink:href="#RED"/><use width="4" height="4" transform="matrix(0.95, 0, 0, 0.87, 99.66, 172.83)" xlink:href="#RED"/><use width="4" height="4" transform="matrix(0.95, 0, 0, 0.87, 104.38, 179.52)" xlink:href="#RED"/><use width="4" height="4" transform="matrix(0.95, 0, 0, 0.87, 117.91, 181.32)" xlink:href="#RED"/><use width="4" height="4" transform="matrix(0.95, 0, 0, 0.87, 122.98, 188.11)" xlink:href="#RED"/><use width="4" height="4" transform="matrix(0.95, 0, 0, 0.87, 130.97, 184.06)" xlink:href="#RED"/><use width="4" height="4" transform="matrix(0.95, 0, 0, 0.87, 141.08, 187.14)" xlink:href="#RED"/><use width="4" height="4" transform="matrix(0.95, 0, 0, 0.87, 151.27, 191.97)" xlink:href="#RED"/><use width="4" height="4" transform="matrix(0.95, 0, 0, 0.87, 155.35, 185.95)" xlink:href="#RED"/><use width="4" height="4" transform="matrix(0.95, 0, 0, 0.87, 165.75, 189.17)" xlink:href="#RED"/><use width="4" height="4" transform="matrix(0.95, 0, 0, 0.87, 165.79, 181.56)" xlink:href="#RED"/><use width="4" height="4" transform="matrix(0.95, 0, 0, 0.87, 175.05, 180.77)" xlink:href="#RED"/><use width="4" height="4" transform="matrix(0.95, 0, 0, 0.87, 173.22, 173.32)" xlink:href="#RED"/><use width="4" height="4" transform="matrix(0.95, 0, 0, 0.87, 168.02, 167.41)" xlink:href="#RED"/><use width="4" height="4" transform="matrix(0.95, 0, 0, 0.87, 164.36, 159.99)" xlink:href="#RED"/><use width="4" height="4" transform="matrix(0.95, 0, 0, 0.87, 160.02, 148.82)" xlink:href="#RED"/><use width="4" height="4" transform="matrix(1.16, 0.01, 0, 1.06, 160.02, 138.58)" xlink:href="#RED"/><use width="4" height="4" transform="matrix(1.73, 0.01, -0.01, 1.58, 152.79, 130.06)" xlink:href="#RED"/><use width="4" height="4" transform="matrix(1.88, 0.01, -0.01, 1.71, 155.47, 121.09)" xlink:href="#RED"/><use width="4" height="4" transform="matrix(1.37, 0.01, -0.01, 1.25, 154.47, 110.84)" xlink:href="#RED"/><use width="4" height="4" transform="matrix(1.37, 0.01, -0.01, 1.25, 153.25, 101.34)" xlink:href="#RED"/><use width="4" height="4" transform="matrix(1.27, 0.01, -0.01, 1.16, 151.96, 88.6)" xlink:href="#RED"/><use width="4" height="4" transform="matrix(1.53, 0.01, -0.01, 1.4, 151.53, 75.49)" xlink:href="#RED"/><use width="4" height="4" transform="matrix(0.99, 0, 0, 0.9, 150.91, 66.13)" xlink:href="#RED"/><use width="4" height="4" transform="matrix(0.99, 0, 0, 0.9, 158.2, 61.46)" xlink:href="#RED"/><use width="4" height="4" transform="matrix(0.98, 0, 0, 0.89, 153.22, 55.66)" xlink:href="#RED"/><use width="4" height="4" transform="matrix(0.96, 0, 0, 0.88, 159.62, 51)" xlink:href="#RED"/><use width="4" height="4" transform="matrix(0.95, 0, 0, 0.87, 166.61, 52.79)" xlink:href="#RED"/><use width="4" height="4" transform="matrix(1.06, 0, 0, 0.97, 169.37, 64.18)" xlink:href="#RED"/><use width="4" height="4" transform="matrix(1.79, 0.01, -0.01, 1.64, 168.1, 88.6)" xlink:href="#RED"/><use width="4" height="4" transform="matrix(1.42, 0.01, -0.01, 1.3, 174.7, 116.5)" xlink:href="#RED"/><use width="4" height="4" transform="matrix(1.32, 0.01, -0.01, 1.21, 179.58, 135.81)" xlink:href="#RED"/><use width="4" height="4" transform="matrix(1.07, 0, 0, 0.98, 182.65, 149.8)" xlink:href="#RED"/><use width="4" height="4" transform="matrix(1.11, 0, 0, 1.01, 184.68, 159.68)" xlink:href="#RED"/><use width="4" height="4" transform="matrix(1.05, 0, 0, 0.96, 190.85, 165.24)" xlink:href="#RED"/><use width="4" height="4" transform="matrix(1.09, 0, 0, 1, 197.84, 157.56)" xlink:href="#RED"/><use width="4" height="4" transform="matrix(1.06, 0, 0, 0.97, 199.44, 134.27)" xlink:href="#RED"/><use width="4" height="4" transform="matrix(1.17, 0.01, 0, 1.07, 200.27, 113.91)" xlink:href="#RED"/><use width="4" height="4" transform="matrix(1.32, 0.01, -0.01, 1.21, 197.66, 103.02)" xlink:href="#RED"/><use width="4" height="4" transform="matrix(1.38, 0.01, -0.01, 1.26, 197.8, 91.75)" xlink:href="#RED"/><use width="4" height="4" transform="matrix(1.21, 0.01, 0, 1.1, 195.84, 82.97)" xlink:href="#RED"/><use width="4" height="4" transform="matrix(0.98, 0, 0, 0.89, 201.8, 77.67)" xlink:href="#RED"/><use width="4" height="4" transform="matrix(0.96, 0, 0, 0.88, 216.58, 86.15)" xlink:href="#RED"/><use width="4" height="4" transform="matrix(0.95, 0, 0, 0.87, 226.7, 85.05)" xlink:href="#RED"/><use width="4" height="4" transform="matrix(1.07, 0, 0, 0.98, 236.07, 86.97)" xlink:href="#RED"/><use width="4" height="4" transform="matrix(1.04, 0, 0, 0.95, 248.22, 90.71)" xlink:href="#RED"/><use width="4" height="4" transform="matrix(0.97, 0, 0, 0.89, 259.93, 91.81)" xlink:href="#RED"/><use width="4" height="4" transform="matrix(1.04, 0, 0, 0.95, 278.29, 84.55)" xlink:href="#RED"/><use width="4" height="4" transform="matrix(1.01, 0, 0, 0.92, 290.37, 84.81)" xlink:href="#RED"/><use width="4" height="4" transform="matrix(1.07, 0, 0, 0.97, 301.03, 84.6)" xlink:href="#RED"/><use width="4" height="4" transform="matrix(1.04, 0, 0, 0.95, 322.86, 82.81)" xlink:href="#RED"/><use width="4" height="4" transform="matrix(0.95, 0, 0, 0.87, 335.47, 84.04)" xlink:href="#RED"/><use width="4" height="4" transform="matrix(0.95, 0, 0, 0.87, 349.81, 83.97)" xlink:href="#RED"/><use width="4" height="4" transform="matrix(0.95, 0, 0, 0.87, 362.52, 84.23)" xlink:href="#RED"/><use width="4" height="4" transform="matrix(0.95, 0, 0, 0.87, 371.84, 83.22)" xlink:href="#RED"/><use width="4" height="4" transform="matrix(1.17, 0.01, 0, 1.07, 374.15, 90.33)" xlink:href="#RED"/><use width="4" height="4" transform="matrix(0.95, 0, 0, 0.87, 382.67, 88.56)" xlink:href="#RED"/><use width="4" height="4" transform="matrix(0.95, 0, 0, 0.87, 386.84, 95.33)" xlink:href="#RED"/><use width="4" height="4" transform="matrix(0.95, 0, 0, 0.87, 390.78, 101.37)" xlink:href="#RED"/><use width="4" height="4" transform="matrix(0.95, 0, 0, 0.87, 392.56, 113.19)" xlink:href="#RED"/><use width="4" height="4" transform="matrix(0.98, 0, 0, 0.9, 384.95, 115.03)" xlink:href="#RED"/><use width="4" height="4" transform="matrix(1.23, 0.01, 0, 1.13, 361, 119.63)" xlink:href="#RED"/><use width="4" height="4" transform="matrix(1.12, 0, 0, 1.02, 336.26, 119.9)" xlink:href="#RED"/><use width="4" height="4" transform="matrix(1.66, 0.01, -0.01, 1.52, 319.17, 118.19)" xlink:href="#RED"/><use width="4" height="4" transform="matrix(1.04, 0, 0, 0.95, 301.6, 121.54)" xlink:href="#RED"/><use width="4" height="4" transform="matrix(1.28, 0.01, -0.01, 1.17, 299.38, 114.06)" xlink:href="#RED"/><use width="4" height="4" transform="matrix(1.03, 0, 0, 0.94, 293.39, 123.63)" xlink:href="#RED"/><use width="4" height="4" transform="matrix(2.32, 0.01, -0.01, 2.12, 301.5, 99.32)" xlink:href="#RED"/><use width="4" height="4" transform="matrix(1.5, 0.01, -0.01, 1.37, 321.34, 99.26)" xlink:href="#RED"/><use width="4" height="4" transform="matrix(1.53, 0.01, -0.01, 1.4, 345.78, 102.08)" xlink:href="#RED"/><use width="4" height="4" transform="matrix(1.61, 0.01, -0.01, 1.47, 361.89, 103.79)" xlink:href="#RED"/><use width="4" height="4" transform="matrix(1.19, 0.01, 0, 1.09, 372.68, 114.83)" xlink:href="#RED"/><use width="4" height="4" transform="matrix(1.16, 0, 0, 1.06, 378.4, 127.01)" xlink:href="#RED"/><use width="4" height="4" transform="matrix(1.04, 0, 0, 0.95, 378.22, 134.58)" xlink:href="#RED"/><use width="4" height="4" transform="matrix(0.95, 0, 0, 0.87, 386.24, 136.64)" xlink:href="#RED"/><use width="4" height="4" transform="matrix(0.95, 0, 0, 0.87, 393.01, 133.2)" xlink:href="#RED"/><use width="4" height="4" transform="matrix(0.95, 0, 0, 0.87, 393.55, 140.91)" xlink:href="#RED"/><use width="4" height="4" transform="matrix(0.95, 0, 0, 0.87, 387.6, 146.11)" xlink:href="#RED"/><use width="4" height="4" transform="matrix(0.95, 0, 0, 0.87, 378.66, 146.71)" xlink:href="#RED"/><use width="4" height="4" transform="matrix(0.95, 0, 0, 0.87, 363.57, 143.42)" xlink:href="#RED"/><use width="4" height="4" transform="matrix(0.95, 0, 0, 0.87, 349.45, 140.81)" xlink:href="#RED"/><use width="4" height="4" transform="matrix(0.95, 0, 0, 0.87, 341.39, 139.82)" xlink:href="#RED"/><use width="4" height="4" transform="matrix(0.95, 0, 0, 0.87, 313.4, 130.81)" xlink:href="#RED"/><use width="4" height="4" transform="matrix(1.44, 0.01, -0.01, 1.32, 286.31, 114.95)" xlink:href="#RED"/><use width="4" height="4" transform="matrix(2.57, 0.01, -0.01, 2.35, 280, 101.29)" xlink:href="#RED"/><use width="4" height="4" transform="matrix(1.41, 0.01, -0.01, 1.29, 272.24, 99.14)" xlink:href="#RED"/><use width="4" height="4" transform="matrix(1.1, 0, 0, 1.01, 269.56, 89.52)" xlink:href="#RED"/><use width="4" height="4" transform="matrix(0.95, 0, 0, 0.87, 254.8, 80.47)" xlink:href="#RED"/><use width="4" height="4" transform="matrix(0.95, 0, 0, 0.87, 236.5, 75.87)" xlink:href="#RED"/><use width="4" height="4" transform="matrix(0.95, 0, 0, 0.87, 220.52, 72.72)" xlink:href="#RED"/><use width="4" height="4" transform="matrix(0.95, 0, 0, 0.87, 213.9, 77.77)" xlink:href="#RED"/><use width="4" height="4" transform="matrix(0.97, 0, 0, 0.89, 218.96, 104.34)" xlink:href="#RED"/><use width="4" height="4" transform="matrix(0.95, 0, 0, 0.87, 219.96, 123.36)" xlink:href="#RED"/><use width="4" height="4" transform="matrix(0.95, 0, 0, 0.87, 218.1, 132.87)" xlink:href="#RED"/><use width="4" height="4" transform="matrix(0.96, 0, 0, 0.88, 209.93, 136.48)" xlink:href="#RED"/><use width="4" height="4" transform="matrix(1.45, 0.01, -0.01, 1.32, 191.05, 121.15)" xlink:href="#RED"/><use width="4" height="4" transform="matrix(1.85, 0.01, -0.01, 1.69, 181.72, 91.78)" xlink:href="#RED"/><use width="4" height="4" transform="matrix(1.1, 0, 0, 1.01, 181.96, 71.94)" xlink:href="#RED"/><use width="4" height="4" transform="translate(10.33 110.23) scale(0.98 0.89)" xlink:href="#RED"/><use width="4" height="4" transform="translate(14.72 105.32) scale(0.98 0.89)" xlink:href="#RED"/><use width="4" height="4" transform="translate(20.07 117.59) scale(0.98 0.89)" xlink:href="#RED"/><use width="4" height="4" transform="translate(29.54 121.45) scale(0.98 0.89)" xlink:href="#RED"/><use width="4" height="4" transform="translate(37.23 128.38) scale(0.98 0.89)" xlink:href="#RED"/><use width="4" height="4" transform="translate(46.78 136.54) scale(0.98 0.89)" xlink:href="#RED"/><use width="4" height="4" transform="translate(55.02 141.7) scale(0.98 0.89)" xlink:href="#RED"/><use width="4" height="4" transform="translate(62 139.3) scale(0.98 0.89)" xlink:href="#RED"/><use width="4" height="4" transform="translate(72.87 140.9) scale(0.98 0.89)" xlink:href="#RED"/><use width="4" height="4" transform="translate(65.11 126.84) scale(0.98 0.89)" xlink:href="#RED"/><use width="4" height="4" transform="translate(50.2 122.91) scale(0.98 0.89)" xlink:href="#RED"/><use width="4" height="4" transform="translate(53.31 129.23) scale(0.98 0.89)" xlink:href="#RED"/><use width="4" height="4" transform="translate(83.08 146.51) scale(1.08 0.98)" xlink:href="#RED"/><use width="4" height="4" transform="translate(99.98 143.46) scale(0.98 0.89)" xlink:href="#RED"/><use width="4" height="4" transform="translate(120.79 140.61) scale(1.02 0.93)" xlink:href="#RED"/><use width="4" height="4" transform="translate(128.88 132.09) scale(1.44 1.31)" xlink:href="#RED"/><use width="4" height="4" transform="translate(136.63 119.13) scale(1.49 1.36)" xlink:href="#RED"/><use width="4" height="4" transform="translate(119.07 124.9) scale(1.26 1.15)" xlink:href="#RED"/><use width="4" height="4" transform="translate(101.23 126.83) scale(0.98 0.89)" xlink:href="#RED"/><use width="4" height="4" transform="translate(84.93 131.93) scale(1.68 1.52)" xlink:href="#RED"/><use width="4" height="4" transform="translate(79.92 123.35) scale(1.18 1.07)" xlink:href="#RED"/><use width="4" height="4" transform="translate(77.28 130.91) scale(1.24 1.13)" xlink:href="#RED"/><use width="4" height="4" transform="translate(137.45 138.5) scale(1.01 0.92)" xlink:href="#RED"/><use width="4" height="4" transform="translate(146.25 130.17) scale(1.33 1.21)" xlink:href="#RED"/><use width="4" height="4" transform="translate(147.09 118.43) scale(1.73 1.57)" xlink:href="#RED"/><use width="4" height="4" transform="translate(167.11 116.82) scale(0.98 0.89)" xlink:href="#RED"/><use width="4" height="4" transform="translate(181 109.46) scale(0.98 0.89)" xlink:href="#RED"/><use width="4" height="4" transform="translate(181.55 100.7) scale(0.98 0.89)" xlink:href="#RED"/><use width="4" height="4" transform="translate(183.2 91.7) scale(0.98 0.89)" xlink:href="#RED"/><use width="4" height="4" transform="translate(191.32 90.05) scale(0.98 0.89)" xlink:href="#RED"/><use width="4" height="4" transform="translate(165.21 97.75) scale(0.98 0.89)" xlink:href="#RED"/><use width="4" height="4" transform="translate(151.81 101.52) scale(0.98 0.89)" xlink:href="#RED"/><use width="4" height="4" transform="translate(159.06 104.91) scale(0.98 0.89)" xlink:href="#RED"/><use width="4" height="4" transform="translate(180.01 83.12) scale(0.98 0.89)" xlink:href="#RED"/><use width="4" height="4" transform="translate(189.84 79.87) scale(0.98 0.89)" xlink:href="#RED"/><use width="4" height="4" transform="translate(197.89 73.31) scale(0.98 0.89)" xlink:href="#RED"/><use width="4" height="4" transform="translate(207.69 68.39) scale(0.98 0.89)" xlink:href="#RED"/><use width="4" height="4" transform="translate(216.59 58.6) scale(1.01 0.92)" xlink:href="#RED"/><use width="4" height="4" transform="translate(228.85 41.62) scale(0.98 0.89)" xlink:href="#RED"/><use width="4" height="4" transform="translate(229.52 22.31) scale(0.98 0.89)" xlink:href="#RED"/><use width="4" height="4" transform="translate(234.25 27.35) scale(0.98 0.89)" xlink:href="#RED"/><use width="4" height="4" transform="translate(215.75 38.53) scale(1.09 0.99)" xlink:href="#RED"/><use width="4" height="4" transform="translate(196.81 44.03) scale(1.13 1.03)" xlink:href="#RED"/><use width="4" height="4" transform="translate(194.21 52.36) scale(1.15 1.04)" xlink:href="#RED"/><use width="4" height="4" transform="translate(201.58 49.9) scale(2.21 2.01)" xlink:href="#RED"/><use width="4" height="4" transform="translate(220.47 29.48) scale(0.98 0.89)" xlink:href="#RED"/><use width="4" height="4" transform="translate(237.96 16.63) scale(0.98 0.89)" xlink:href="#RED"/><use width="4" height="4" transform="translate(250.32 11.92) scale(1.07 0.97)" xlink:href="#RED"/><use width="4" height="4" transform="translate(259.94 11.52) scale(1.03 0.94)" xlink:href="#RED"/><use width="4" height="4" transform="translate(272.79 11.1) scale(0.98 0.89)" xlink:href="#RED"/><use width="4" height="4" transform="translate(284.67 14.67) scale(1 0.91)" xlink:href="#RED"/><use width="4" height="4" transform="translate(292.01 29.06) scale(0.98 0.89)" xlink:href="#RED"/><use width="4" height="4" transform="translate(294.48 47.53) scale(0.98 0.89)" xlink:href="#RED"/><use width="4" height="4" transform="translate(292.89 37.53) scale(0.98 0.89)" xlink:href="#RED"/><use width="4" height="4" transform="translate(271.35 30.93) scale(1.21 1.1)" xlink:href="#RED"/><use width="4" height="4" transform="translate(271.55 20.09) scale(1.25 1.14)" xlink:href="#RED"/><use width="4" height="4" transform="translate(262.06 24.65) scale(1.14 1.04)" xlink:href="#RED"/><use width="4" height="4" transform="translate(245.13 39.56) scale(1.22 1.11)" xlink:href="#RED"/><use width="4" height="4" transform="translate(241.35 33.74) scale(1 0.91)" xlink:href="#RED"/><use width="4" height="4" transform="translate(249.64 27.66) scale(1.43 1.3)" xlink:href="#RED"/><use width="4" height="4" transform="translate(281.69 26.83) scale(1.21 1.1)" xlink:href="#RED"/><use width="4" height="4" transform="translate(287.61 44.22) scale(0.98 0.89)" xlink:href="#RED"/><use width="4" height="4" transform="translate(304.98 58.61) scale(0.98 0.89)" xlink:href="#RED"/><use width="4" height="4" transform="translate(319.46 72.93) scale(1.38 1.26)" xlink:href="#RED"/><use width="4" height="4" transform="translate(332.68 81.44) scale(0.98 0.89)" xlink:href="#RED"/><use width="4" height="4" transform="translate(347.27 91.68) scale(0.98 0.89)" xlink:href="#RED"/><use width="4" height="4" transform="translate(354.17 98.58) scale(0.98 0.89)" xlink:href="#RED"/><use width="4" height="4" transform="translate(363.86 106.55) scale(0.98 0.89)" xlink:href="#RED"/><use width="4" height="4" transform="translate(373.93 117.87) scale(0.98 0.89)" xlink:href="#RED"/><use width="4" height="4" transform="translate(382.01 115.13) scale(0.98 0.89)" xlink:href="#RED"/><use width="4" height="4" transform="translate(390.11 93.17) scale(1.03 0.93)" xlink:href="#RED"/><use width="4" height="4" transform="translate(393.11 74.76) scale(0.98 0.89)" xlink:href="#RED"/><use width="4" height="4" transform="translate(391.13 59.46) scale(0.98 0.89)" xlink:href="#RED"/><use width="4" height="4" transform="translate(389.64 50.72) scale(0.98 0.89)" xlink:href="#RED"/><use width="4" height="4" transform="translate(390.34 40.89) scale(0.98 0.89)" xlink:href="#RED"/><use width="4" height="4" transform="translate(377.89 67.26) scale(0.98 0.89)" xlink:href="#RED"/><use width="4" height="4" transform="translate(372.06 78.55) scale(1.08 0.99)" xlink:href="#RED"/><use width="4" height="4" transform="translate(365.82 89.64) scale(0.98 0.89)" xlink:href="#RED"/><use width="4" height="4" transform="translate(349 80.1) scale(0.98 0.89)" xlink:href="#RED"/><use width="4" height="4" transform="translate(326.83 59.14) scale(1.12 1.02)" xlink:href="#RED"/><use width="4" height="4" transform="translate(325.22 47.24) scale(0.98 0.89)" xlink:href="#RED"/><use width="4" height="4" transform="translate(329.69 51.88) scale(0.98 0.89)" xlink:href="#RED"/><use width="4" height="4" transform="translate(344.48 71.82) scale(0.98 0.89)" xlink:href="#RED"/><use width="4" height="4" transform="translate(354.08 71.71) scale(0.98 0.89)" xlink:href="#RED"/><use width="4" height="4" transform="translate(369.84 54.82) scale(0.98 0.89)" xlink:href="#RED"/><use width="4" height="4" transform="translate(373.82 38.88) scale(0.98 0.89)" xlink:href="#RED"/><use width="4" height="4" transform="translate(368.36 35.57) scale(0.98 0.89)" xlink:href="#RED"/><use width="4" height="4" transform="translate(364.73 47.16) scale(0.98 0.89)" xlink:href="#RED"/><use width="4" height="4" transform="translate(355.05 60.27) scale(0.98 0.89)" xlink:href="#RED"/><use width="4" height="4" transform="translate(316.33 58.35) scale(1.39 1.26)" xlink:href="#RED"/><use width="4" height="4" transform="translate(309.91 47.04) scale(0.98 0.89)" xlink:href="#RED"/><use width="4" height="4" transform="translate(306.35 33.53) scale(0.98 0.89)" xlink:href="#RED"/><use width="4" height="4" transform="translate(297.52 19.26) scale(0.98 0.89)" xlink:href="#RED"/><use width="4" height="4" transform="translate(10.32 107.51) scale(0.99 0.98)" xlink:href="#RED"/><use width="4" height="4" transform="translate(4.57 111.18) scale(0.99 0.98)" xlink:href="#RED"/><use width="4" height="4" transform="translate(11.31 124.32) scale(0.99 0.98)" xlink:href="#RED"/><use width="4" height="4" transform="translate(21.28 138.02) scale(0.99 0.98)" xlink:href="#RED"/><use width="4" height="4" transform="translate(22.06 150.55) scale(0.99 0.98)" xlink:href="#RED"/><use width="4" height="4" transform="translate(26.72 157.7) scale(0.99 0.98)" xlink:href="#RED"/><use width="4" height="4" transform="translate(30.3 166.5) scale(0.99 0.98)" xlink:href="#RED"/><use width="4" height="4" transform="translate(34.29 190.71) scale(0.99 0.98)" xlink:href="#RED"/><use width="4" height="4" transform="translate(26.77 174.04) scale(0.99 0.98)" xlink:href="#RED"/><use width="4" height="4" transform="translate(13.95 144.92) scale(0.99 0.98)" xlink:href="#RED"/><use width="4" height="4" transform="translate(16.09 135.95) scale(0.99 0.98)" xlink:href="#RED"/><use width="4" height="4" transform="translate(25.14 144.48) scale(0.99 0.98)" xlink:href="#RED"/><use width="4" height="4" transform="translate(43.76 181.5) scale(0.99 0.98)" xlink:href="#RED"/><use width="4" height="4" transform="translate(61.33 208.59) scale(1.37 1.37)" xlink:href="#RED"/><use width="4" height="4" transform="translate(72.26 232.49) scale(0.99 0.98)" xlink:href="#RED"/><use width="4" height="4" transform="translate(78.39 237.1) scale(0.99 0.98)" xlink:href="#RED"/><use width="4" height="4" transform="translate(92.18 218.05) scale(1.04 1.04)" xlink:href="#RED"/><use width="4" height="4" transform="translate(108.62 199.69) scale(0.99 0.98)" xlink:href="#RED"/><use width="4" height="4" transform="translate(122.89 195.99) scale(0.99 0.98)" xlink:href="#RED"/><use width="4" height="4" transform="translate(118.48 206.17) scale(0.99 0.98)" xlink:href="#RED"/><use width="4" height="4" transform="translate(103.17 214.98) scale(0.99 0.98)" xlink:href="#RED"/><use width="4" height="4" transform="translate(111.51 215.7) scale(0.99 0.98)" xlink:href="#RED"/><use width="4" height="4" transform="translate(141.68 207.04) scale(0.99 0.98)" xlink:href="#RED"/><use width="4" height="4" transform="translate(167.67 200.97) scale(0.99 0.98)" xlink:href="#RED"/><use width="4" height="4" transform="translate(181.75 192.93) scale(1.43 1.43)" xlink:href="#RED"/><use width="4" height="4" transform="translate(204.85 172.28) scale(0.99 0.98)" xlink:href="#RED"/><use width="4" height="4" transform="translate(214.21 163.37) scale(0.99 0.98)" xlink:href="#RED"/><use width="4" height="4" transform="translate(226.16 146.58) scale(1.62 1.61)" xlink:href="#RED"/><use width="4" height="4" transform="translate(247.32 131.47) scale(0.99 0.98)" xlink:href="#RED"/><use width="4" height="4" transform="translate(237.64 141.89) scale(1.45 1.45)" xlink:href="#RED"/><use width="4" height="4" transform="translate(208.29 152.38) scale(0.99 0.98)" xlink:href="#RED"/><use width="4" height="4" transform="translate(192.83 158.59) scale(0.99 0.98)" xlink:href="#RED"/><use width="4" height="4" transform="translate(177.39 160.38) scale(0.99 0.98)" xlink:href="#RED"/><use width="4" height="4" transform="translate(178.6 167.31) scale(0.99 0.98)" xlink:href="#RED"/><use width="4" height="4" transform="translate(237.48 161.48) scale(1.51 1.5)" xlink:href="#RED"/><use width="4" height="4" transform="translate(259.25 155.08) scale(1.15 1.15)" xlink:href="#RED"/><use width="4" height="4" transform="translate(264.23 147.03) scale(1.02 1.02)" xlink:href="#RED"/><use width="4" height="4" transform="translate(264.39 175.87) scale(0.99 0.98)" xlink:href="#RED"/><use width="4" height="4" transform="translate(275.8 176.84) scale(0.99 0.98)" xlink:href="#RED"/><use width="4" height="4" transform="translate(300.04 161.4) scale(0.99 0.98)" xlink:href="#RED"/><use width="4" height="4" transform="translate(316.11 153.5) scale(0.99 0.98)" xlink:href="#RED"/><use width="4" height="4" transform="translate(324.98 158.99) scale(0.99 0.98)" xlink:href="#RED"/><use width="4" height="4" transform="translate(328.39 172.28) scale(0.99 0.98)" xlink:href="#RED"/><use width="4" height="4" transform="translate(343.11 171.14) scale(0.99 0.99)" xlink:href="#RED"/><use width="4" height="4" transform="translate(360.48 161.82) scale(2.15 2.14)" xlink:href="#RED"/><use width="4" height="4" transform="translate(369.66 151.16) scale(0.99 0.98)" xlink:href="#RED"/><use width="4" height="4" transform="translate(377.08 154.51) scale(0.99 0.98)" xlink:href="#RED"/><use width="4" height="4" transform="translate(377.33 143) scale(0.99 0.98)" xlink:href="#RED"/><use width="4" height="4" transform="translate(385.47 143.17) scale(0.99 0.98)" xlink:href="#RED"/><use width="4" height="4" transform="translate(390.02 149.82) scale(0.99 0.98)" xlink:href="#RED"/><use width="4" height="4" transform="translate(393.08 163.72) scale(0.99 0.98)" xlink:href="#RED"/><use width="4" height="4" transform="translate(387.02 171.36) scale(0.99 0.98)" xlink:href="#RED"/><use width="4" height="4" transform="translate(370.62 178.19) scale(0.99 0.98)" xlink:href="#RED"/><use width="4" height="4" transform="translate(338.14 159.37) scale(0.99 0.98)" xlink:href="#RED"/><use width="4" height="4" transform="translate(337.08 150.47) scale(0.99 0.98)" xlink:href="#RED"/><use width="4" height="4" transform="translate(314.26 165.32) scale(0.99 0.98)" xlink:href="#RED"/><use width="4" height="4" transform="translate(285.68 165.17) scale(0.99 0.98)" xlink:href="#RED"/><use width="4" height="4" transform="translate(276.9 144.35) scale(0.99 0.98)" xlink:href="#RED"/><use width="4" height="4" transform="translate(272.64 133.2) scale(0.99 0.98)" xlink:href="#RED"/><use width="4" height="4" transform="translate(250.07 142.75) scale(1.5 1.5)" xlink:href="#RED"/><use width="4" height="4" transform="translate(229.78 170.8) scale(0.99 0.98)" xlink:href="#RED"/><use width="4" height="4" transform="translate(229.65 178.85) scale(0.99 0.98)" xlink:href="#RED"/><use width="4" height="4" transform="translate(203.94 182.74) scale(0.99 0.98)" xlink:href="#RED"/><use width="4" height="4" transform="translate(194.9 181.26) scale(0.99 0.98)" xlink:href="#RED"/><use width="4" height="4" transform="translate(214.31 183.36) scale(0.99 0.98)" xlink:href="#RED"/><use width="4" height="4" transform="translate(254.08 179.16) scale(0.99 0.98)" xlink:href="#RED"/><use width="4" height="4" transform="translate(269.66 163.75) scale(1.08 1.08)" xlink:href="#RED"/><use width="4" height="4" transform="translate(283.05 148.65) scale(0.99 0.98)" xlink:href="#RED"/><use width="4" height="4" transform="translate(275.27 156) scale(1.13 1.13)" xlink:href="#RED"/><use width="4" height="4" transform="translate(196.69 172) scale(0.99 0.98)" xlink:href="#RED"/><use width="4" height="4" transform="translate(152.12 183.75) scale(0.99 0.98)" xlink:href="#RED"/><use width="4" height="4" transform="translate(132.78 188.07) scale(0.99 0.98)" xlink:href="#RED"/><use width="4" height="4" transform="translate(98.89 204.94) scale(0.99 0.98)" xlink:href="#RED"/><use width="4" height="4" transform="translate(83.53 222.92) scale(1.14 1.14)" xlink:href="#RED"/><use width="4" height="4" transform="translate(67.22 223.58) scale(1.17 1.17)" xlink:href="#RED"/><use width="4" height="4" transform="translate(53.05 217.54) scale(1.14 1.14)" xlink:href="#RED"/><use width="4" height="4" transform="translate(56.78 199.55) scale(1.08 1.07)" xlink:href="#RED"/><use width="4" height="4" transform="translate(58.96 192.47) scale(0.99 0.98)" xlink:href="#RED"/></g></g></svg>